<svg width="16" height="16" viewBox="0 0 16 16" fill="none" xmlns="http://www.w3.org/2000/svg">
<g clip-path="url(#clip0)">
<path d="M0.93971 12.9119C0.949741 12.9962 0.993647 13.0728 1.06127 13.124C1.12896 13.1753 1.21452 13.1968 1.29837 13.1837C1.31715 13.1808 3.18589 12.893 4.16327 13.1752C5.57273 13.5824 6.51761 14.593 6.75585 14.8698C6.81635 15.503 7.35113 16 7.99998 16C8.64894 16 9.18382 15.5028 9.24413 14.8693C9.4816 14.5922 10.4211 13.5842 11.8367 13.1752C12.8125 12.8935 14.6829 13.1808 14.7017 13.1837C14.8768 13.211 15.0394 13.0873 15.0603 12.9119L15.3628 10.3709C15.3832 10.1995 15.2608 10.044 15.0894 10.0237C14.9182 10.0034 14.7626 10.1257 14.7422 10.297L14.4772 12.5228C13.8635 12.4484 12.5164 12.3284 11.6633 12.5747C10.5783 12.8881 9.75294 13.5039 9.24997 13.9673V6.01714C9.42026 5.7188 10.2697 4.37499 11.75 4.37499C12.9013 4.37499 14.2838 4.76002 15.3494 5.1959L15.0747 7.50411C15.0526 7.68958 15.1972 7.85358 15.3853 7.85358C15.5414 7.85358 15.6763 7.73683 15.6952 7.57802L15.9977 5.03699C16.0138 4.90187 15.9406 4.77183 15.8167 4.71555C15.7952 4.70577 15.3324 4.49665 14.6449 4.27437L14.8731 2.22206C14.8829 2.13371 14.8546 2.04537 14.7953 1.97915C14.736 1.91284 14.6514 1.875 14.5625 1.875C14.3152 1.875 14.0671 1.8895 13.8212 1.91825L13.9367 0.335249C13.943 0.248656 13.913 0.163312 13.8538 0.0997186C13.7947 0.0361562 13.7118 0 13.625 0C11.3119 0 9.33157 1.6729 8.95016 3.9599C8.62166 5.94661 8.62498 5.88452 8.62498 5.93749C8.62498 6.28211 8.3446 6.56249 7.99998 6.56249C7.65535 6.56249 7.37498 6.28211 7.37498 5.93749C7.37498 5.8718 7.35357 5.80483 7.04979 3.95987C6.66932 1.67837 4.69358 0 2.37499 0C2.28818 0 2.20524 0.0361249 2.14611 0.0996873C2.08699 0.163281 2.05699 0.248625 2.0633 0.335218L2.17871 1.91825C1.93283 1.8895 1.68477 1.875 1.43749 1.875C1.34858 1.875 1.26393 1.91284 1.20462 1.97909C1.14533 2.04531 1.11708 2.13365 1.1269 2.222L1.35502 4.2743C0.667523 4.49662 0.204712 4.70571 0.183212 4.71549C0.0593056 4.77177 -0.013913 4.9018 0.00221198 5.03693L0.93971 12.9119ZM14.2121 2.51071L14.0362 4.09309C13.1977 3.86534 12.43 3.74999 11.75 3.74999C11.4065 3.74999 11.0924 3.80556 10.8073 3.89827C11.7564 3.08137 12.9443 2.58821 14.2121 2.51071ZM9.56666 4.06265C9.88019 2.18259 11.4182 0.789092 13.2879 0.63853L13.1868 2.02518C11.7757 2.33734 10.4643 3.12903 9.51904 4.34846L9.56666 4.06265ZM7.99998 7.18749C8.22757 7.18749 8.44098 7.12605 8.62498 7.01933V14.75C8.62498 15.0946 8.3446 15.375 7.99998 15.375C7.65535 15.375 7.37498 15.0946 7.37498 14.75V7.01933C7.55901 7.12605 7.77238 7.18749 7.99998 7.18749ZM6.43329 4.06262L6.48092 4.34843C5.53483 3.12781 4.22208 2.33684 2.81318 2.02515L2.71208 0.638499C4.58177 0.789092 6.11979 2.18259 6.43329 4.06262ZM5.19276 3.8983C4.90755 3.80559 4.59345 3.74999 4.24998 3.74999C3.56992 3.74999 2.8023 3.86534 1.96374 4.09309L1.78786 2.51071C3.05064 2.5879 4.2398 3.07809 5.19276 3.8983ZM4.24998 4.37499C5.73008 4.37499 6.57951 5.71852 6.74998 6.01711V13.9673C6.24704 13.504 5.42161 12.8882 4.33667 12.5747C3.55395 12.3487 2.32911 12.425 1.52277 12.5228L0.650523 5.1958C1.71721 4.7594 3.09971 4.37499 4.24998 4.37499Z" fill="#00A2E9"/>
<path d="M15.2188 9.25C15.3913 9.25 15.5312 9.11009 15.5312 8.9375C15.5312 8.76491 15.3913 8.625 15.2188 8.625C15.0462 8.625 14.9062 8.76491 14.9062 8.9375C14.9062 9.11009 15.0462 9.25 15.2188 9.25Z" fill="#00A2E9"/>
</g>
<defs>
<clipPath id="clip0">
<rect width="16" height="16" fill="white"/>
</clipPath>
</defs>
</svg>
