<svg width="61" height="85" viewBox="0 0 61 85" fill="none" xmlns="http://www.w3.org/2000/svg">
<path d="M56.5172 56.1427V47.294L52.783 48.7469L52.772 48.7223L52.683 48.5607C51.2521 46.3328 48.9379 44.7827 46.3321 44.3103L37.3465 42.6753V41.966C40.7069 40.0147 43.1675 36.6858 43.9344 32.7503C46.4238 32.2355 48.3012 30.0267 48.3012 27.3867V13.8618C48.3012 10.04 45.798 6.70699 42.1666 5.62248L41.4819 4.93782C38.2968 1.75275 34.0628 0 29.5591 0C20.2627 0 12.6985 7.56283 12.6985 16.8606V27.3867C12.6985 30.0267 14.5759 32.2355 17.0653 32.7503C17.8335 36.6858 20.2928 40.016 23.6532 41.966V42.6753L14.669 44.3089C12.0659 44.7813 9.75308 46.3287 8.32075 48.5552L8.23859 48.7551L4.48251 47.294V56.1427C2.21763 56.1427 0.374512 57.9858 0.374512 60.2507V65.728C0.374512 67.9929 2.21763 69.836 4.48251 69.836V74.8806L30.4998 85L56.5172 74.8806V69.836C58.7821 69.836 60.6252 67.9929 60.6252 65.728V60.2507C60.6252 57.9858 58.7821 56.1427 56.5172 56.1427ZM39.9126 45.9261L45.8419 47.0037C47.5878 47.3214 49.1337 48.3293 50.1648 49.7643L36.9165 54.9157L39.9126 45.9261ZM26.5082 43.2216C27.7721 43.6078 29.1113 43.8187 30.4998 43.8187C31.8883 43.8187 33.2276 43.6078 34.4915 43.2216L30.4998 46.215L26.5082 43.2216ZM28.4157 48.0746L25.6209 50.868L23.8079 45.4304L24.6802 45.2729L28.4157 48.0746ZM36.3195 45.2743L37.1918 45.4317L35.3788 50.8694L32.584 48.0759L36.3195 45.2743ZM44.1932 29.7447V25.0287C45.0079 25.5038 45.5625 26.3775 45.5625 27.3867C45.5625 28.3959 45.0079 29.2695 44.1932 29.7447ZM16.8065 29.7447C15.9918 29.2695 15.4372 28.3959 15.4372 27.3867C15.4372 26.3775 15.9918 25.5038 16.8065 25.0287V29.7447ZM16.8065 20.54V22.1038C16.319 22.2311 15.8617 22.4228 15.4372 22.6707V16.8606C15.4372 9.07457 21.7717 2.73867 29.5591 2.73867C33.3303 2.73867 36.8782 4.20796 39.5457 6.87542L40.7534 8.08454L41.1218 8.17492C43.7372 8.82809 45.5625 11.1669 45.5625 13.8618V22.6707C45.138 22.4228 44.6807 22.2298 44.1932 22.1038V20.54H39.851C36.1401 20.54 32.5936 18.7681 30.3684 15.8007L29.2798 14.3465L26.5589 17.0687C24.3187 19.3076 21.3417 20.54 18.1758 20.54H16.8065ZM19.5452 30.1253V23.2157C22.9261 22.9021 26.0632 21.4355 28.4951 19.005L29.0278 18.4723C31.7733 21.5026 35.728 23.2787 39.851 23.2787H41.4545V30.1253C41.4545 36.1655 36.54 41.08 30.4998 41.08C24.4597 41.08 19.5452 36.1655 19.5452 30.1253ZM15.1578 47.0037L21.087 45.9261L24.0831 54.9157L10.8321 49.7629C11.8632 48.3265 13.4119 47.3214 15.1578 47.0037ZM3.11318 65.728V60.2507C3.11318 59.4948 3.72801 58.8813 4.48251 58.8813C6.74739 58.8813 8.59051 60.7245 8.59051 62.9893C8.59051 65.2542 6.74739 67.0973 4.48251 67.0973C3.72801 67.0973 3.11318 66.4839 3.11318 65.728ZM29.1305 81.5274L7.22118 73.0088V69.2554C9.63531 68.1955 11.3292 65.7896 11.3292 62.9893C11.3292 60.189 9.63531 57.7831 7.22118 56.7233V51.298L29.1305 59.818V81.5274ZM25.065 55.2992L30.4998 49.8629L35.9347 55.2978L30.4998 57.412L25.065 55.2992ZM53.7785 73.0074L31.8692 81.526V59.818L53.7785 51.298V56.7233C51.3644 57.7831 49.6705 60.189 49.6705 62.9893C49.6705 65.7896 51.3644 68.1955 53.7785 69.2554V73.0074ZM57.8865 65.728C57.8865 66.4839 57.2717 67.0973 56.5172 67.0973C54.2523 67.0973 52.4092 65.2542 52.4092 62.9893C52.4092 60.7245 54.2523 58.8813 56.5172 58.8813C57.2717 58.8813 57.8865 59.4948 57.8865 60.2507V65.728Z" fill="#C4C4C4"/>
</svg>
