<svg width="16" height="16" viewBox="0 0 16 16" fill="none" xmlns="http://www.w3.org/2000/svg">
<path d="M15.1992 10.1016H14.769C15.2131 9.69424 15.4922 9.10959 15.4922 8.46094C15.4922 7.53397 14.9226 6.73782 14.1152 6.4032C14.4738 6.09146 14.7012 5.63242 14.7012 5.12109C14.7012 4.18414 13.9389 3.42188 13.002 3.42188H12.5918V0.785156C12.5918 0.623291 12.4607 0.492188 12.2988 0.492188H4.47656C3.5072 0.492188 2.71875 1.28064 2.71875 2.25C2.71875 2.69989 2.88885 3.1106 3.16782 3.42188H1.57617C1.41431 3.42188 1.2832 3.55298 1.2832 3.71484V6.23438H0.785156C0.623291 6.23438 0.492188 6.36548 0.492188 6.52734V10.3945C0.492188 10.5564 0.623291 10.6875 0.785156 10.6875H1.51163C0.8909 11.1817 0.492188 11.9436 0.492188 12.7969C0.492188 14.2831 1.70123 15.4922 3.1875 15.4922H15.1992C15.3611 15.4922 15.4922 15.3611 15.4922 15.1992V10.3945C15.4922 10.2327 15.3611 10.1016 15.1992 10.1016ZM13.3828 10.6875V12.1309L12.9442 11.6978C12.8871 11.6415 12.8126 11.6133 12.7383 11.6133C12.6639 11.6133 12.5895 11.6415 12.5324 11.6978L12.0938 12.1309V10.6875H13.3828ZM13.2656 6.82031C14.1703 6.82031 14.9062 7.5563 14.9062 8.46094C14.9062 9.36557 14.1703 10.1016 13.2656 10.1016H9.14401C9.58813 9.69424 9.86719 9.10959 9.86719 8.46094C9.86719 7.81229 9.58813 7.22763 9.1441 6.82031H13.2656ZM14.1152 5.12109C14.1152 5.73495 13.6158 6.23438 13.002 6.23438H8.65906C8.91852 5.93591 9.07617 5.54672 9.07617 5.12109C9.07617 4.69547 8.91852 4.30627 8.65906 4.00781H13.002C13.6158 4.00781 14.1152 4.50723 14.1152 5.12109ZM12.0059 1.07812V3.42188H8.66602C8.01984 3.42188 7.49414 2.89618 7.49414 2.25C7.49414 1.60382 8.01984 1.07812 8.66602 1.07812H12.0059ZM3.30469 2.25C3.30469 1.60382 3.83038 1.07812 4.47656 1.07812H7.35727C7.07831 1.3894 6.9082 1.80011 6.9082 2.25C6.9082 2.69989 7.07831 3.1106 7.35727 3.42188H4.47656C3.83038 3.42188 3.30469 2.89618 3.30469 2.25ZM1.86914 4.00781H7.37695C7.99081 4.00781 8.49023 4.50723 8.49023 5.12109C8.49023 5.73495 7.99081 6.23438 7.37695 6.23438H1.86914V4.00781ZM1.07812 10.1016V9.39844H6.35156C6.51343 9.39844 6.64453 9.26733 6.64453 9.10547C6.64453 8.9436 6.51343 8.8125 6.35156 8.8125H1.07812V8.10938H7.52344C7.6853 8.10938 7.81641 7.97827 7.81641 7.81641C7.81641 7.65454 7.6853 7.52344 7.52344 7.52344H1.07812V6.82031H7.64062C8.54526 6.82031 9.28125 7.5563 9.28125 8.46094C9.28125 9.36557 8.54526 10.1016 7.64062 10.1016H1.07812ZM3.1875 14.9062C2.53647 14.9062 1.95346 14.6096 1.56619 14.1445H4.76953C4.9314 14.1445 5.0625 14.0134 5.0625 13.8516C5.0625 13.6897 4.9314 13.5586 4.76953 13.5586H1.22104C1.12903 13.3222 1.07812 13.0655 1.07812 12.7969C1.07812 11.6338 2.02441 10.6875 3.1875 10.6875H8.44629C7.82547 11.1817 7.42685 11.9436 7.42685 12.7969C7.42685 13.6501 7.82547 14.412 8.44629 14.9062H3.1875ZM14.9062 14.9062H10.1221C8.95898 14.9062 8.0127 13.96 8.0127 12.7969C8.0127 11.6338 8.95898 10.6875 10.1221 10.6875H11.5078V12.832C11.5078 12.9502 11.5788 13.0568 11.6878 13.1023C11.7968 13.148 11.9225 13.1236 12.0067 13.0405L12.7383 12.318L13.4699 13.0405C13.5258 13.0957 13.6003 13.125 13.6759 13.125C13.7139 13.125 13.7522 13.1175 13.7888 13.1023C13.8978 13.0568 13.9688 12.9502 13.9688 12.832V10.6875H14.9062V14.9062Z" fill="#00A2E9"/>
<path d="M7.86914 9.10547C7.86914 9.02847 7.83792 8.95276 7.78336 8.89838C7.72879 8.84381 7.65335 8.8125 7.57617 8.8125C7.49918 8.8125 7.42365 8.84381 7.36917 8.89838C7.31461 8.95276 7.2832 9.02847 7.2832 9.10547C7.2832 9.18246 7.31461 9.25818 7.36917 9.31256C7.42365 9.36713 7.49918 9.39844 7.57617 9.39844C7.65335 9.39844 7.72879 9.36713 7.78336 9.31256C7.83792 9.25818 7.86914 9.18246 7.86914 9.10547Z" fill="#00A2E9"/>
<path d="M5.99023 13.5586C5.91287 13.5586 5.83762 13.5899 5.78305 13.6445C5.7283 13.6989 5.69727 13.7746 5.69727 13.8516C5.69727 13.9286 5.7283 14.0043 5.78305 14.0587C5.83762 14.1132 5.91287 14.1445 5.99023 14.1445C6.06723 14.1445 6.14276 14.1132 6.19724 14.0587C6.2518 14.0043 6.2832 13.9286 6.2832 13.8516C6.2832 13.7746 6.2518 13.6989 6.19724 13.6445C6.14276 13.5899 6.06723 13.5586 5.99023 13.5586Z" fill="#00A2E9"/>
</svg>
