<svg width="16" height="16" viewBox="0 0 16 16" fill="none" xmlns="http://www.w3.org/2000/svg">
<g clip-path="url(#clip0)">
<path d="M10.1875 2.1875C10.1875 0.981313 9.20619 0 8 0C6.79381 0 5.8125 0.981313 5.8125 2.1875C5.8125 3.39369 6.79381 4.375 8 4.375C9.20619 4.375 10.1875 3.39369 10.1875 2.1875ZM8 3.75C7.13844 3.75 6.4375 3.04906 6.4375 2.1875C6.4375 1.32594 7.13844 0.625 8 0.625C8.86156 0.625 9.5625 1.32594 9.5625 2.1875C9.5625 3.04906 8.86156 3.75 8 3.75Z" fill="#00A2E9"/>
<path d="M3.6875 8.75C4.26041 8.75 4.86225 8.64928 5.36822 8.47422C5.51116 9.22337 5.65547 9.99116 5.73882 10.7149C4.33757 10.7583 3.38425 10.859 2.67613 11.0367C1.64688 11.2949 1.125 11.7557 1.125 12.4062C1.125 13.1678 1.87694 14.0497 3.13644 14.7653C3.28772 14.8513 3.47797 14.7968 3.5625 14.648C3.64778 14.498 3.59525 14.3072 3.44519 14.222C2.27416 13.5566 1.75 12.8306 1.75 12.4062C1.75 11.5334 4.22766 11.3743 6.09135 11.3305C6.69497 11.6127 7.34744 11.7541 8 11.7541C8.65257 11.7541 9.30503 11.6127 9.90866 11.3305C11.7723 11.3743 14.25 11.5334 14.25 12.4062C14.25 13.4549 12.1072 14.5278 11.083 14.8724C10.9933 14.4493 10.7616 14.0691 10.4166 13.7943C10.3171 13.7151 10.2108 13.647 10.1 13.5892C10.6198 13.3771 11.1222 13.1875 11.75 13.1875C11.9226 13.1875 12.0625 13.0476 12.0625 12.875C12.0625 12.7024 11.9226 12.5625 11.75 12.5625C10.9562 12.5625 10.3462 12.8127 9.75632 13.0546C9.40153 13.2001 9.06641 13.3376 8.69572 13.4211C8.69428 13.4214 8.69285 13.4218 8.69141 13.4221C8.51041 13.4654 8.24791 13.5 8 13.5C7.32941 13.5 6.802 13.2837 6.2436 13.0546C5.65372 12.8127 5.04378 12.5625 4.25 12.5625C4.07741 12.5625 3.9375 12.7024 3.9375 12.875C3.9375 13.0476 4.07741 13.1875 4.25 13.1875C4.9206 13.1875 5.448 13.4038 6.00641 13.6329C6.59628 13.8748 7.20622 14.125 8 14.125C8.30688 14.125 8.62238 14.0817 8.84988 14.0271C9.27216 13.9302 9.70122 14.0236 10.0272 14.2832C10.2745 14.4803 10.4317 14.7481 10.4822 15.0522C9.67244 15.2662 8.83872 15.375 8 15.375C7.32528 15.375 6.64657 15.3037 5.98269 15.1631C5.81378 15.1273 5.648 15.2353 5.61222 15.4041C5.57647 15.5729 5.68438 15.7388 5.85319 15.7746C6.55957 15.9242 7.28185 16 8 16C11.7547 16 14.875 13.9295 14.875 12.4062C14.875 10.8617 11.9103 10.766 10.2613 10.7149C10.3447 9.99128 10.4888 9.22397 10.6316 8.47519C11.1379 8.65153 11.7311 8.75 12.3125 8.75C13.9795 8.75 15.911 7.81553 15.9995 6.20466C16.0055 6.09653 15.955 5.99303 15.8662 5.93113C15.7773 5.86922 15.6628 5.85769 15.5634 5.90072C15.058 6.11944 14.3684 6.25 13.7188 6.25C11.9293 6.25 11.0017 5.33519 10.8985 5.29044C10.0695 4.69766 9.06291 4.375 8.02219 4.375H7.97782C7.65169 4.375 7.32447 4.407 7.00525 4.47C6.13269 4.63219 5.15028 5.19075 4.99172 5.37081C4.1915 5.97641 3.27078 6.25 2.28125 6.25C1.63157 6.25 0.942003 6.11944 0.436628 5.90072C0.337253 5.85772 0.22269 5.86922 0.133846 5.93113C0.0450027 5.99303 -0.00546609 6.09653 0.000471413 6.20466C0.0892839 7.82019 2.02788 8.75 3.6875 8.75ZM6.37391 10.7726C6.2005 9.13631 5.71869 7.34656 5.55485 5.73634C5.91847 5.49059 6.32416 5.30037 6.75 5.17556V5.625C6.75 6.31425 7.31075 6.875 8 6.875C8.68925 6.875 9.25 6.31425 9.25 5.625V5.17553C9.67557 5.30028 10.0812 5.49044 10.4452 5.73641C10.2837 7.33191 9.80003 9.13381 9.6261 10.7726C8.59628 11.2476 7.40375 11.2476 6.37391 10.7726ZM13.7188 6.875C14.2316 6.875 14.7698 6.80125 15.2456 6.67053C14.8563 7.49709 13.6544 8.125 12.3125 8.125C11.7722 8.125 11.2052 8.02484 10.7496 7.85294C10.8576 7.27663 10.9572 6.70972 11.0269 6.15256C11.7571 6.60919 12.7333 6.875 13.7188 6.875ZM8.02219 5C8.2236 5 8.42544 5.01422 8.625 5.04178V5.625C8.625 5.96962 8.34463 6.25 8 6.25C7.65538 6.25 7.375 5.96962 7.375 5.625V5.04178C7.57457 5.01422 7.77638 5 7.97782 5H8.02219ZM2.28125 6.875C3.26691 6.875 4.24322 6.60909 4.97338 6.15244C5.04416 6.71588 5.1456 7.29297 5.25032 7.85262C4.79478 8.02478 4.22878 8.125 3.6875 8.125C2.34563 8.125 1.14369 7.49709 0.754409 6.67053C1.23022 6.80125 1.76844 6.875 2.28125 6.875Z" fill="#00A2E9"/>
<path d="M4.5625 15.4062C4.73509 15.4062 4.875 15.2663 4.875 15.0938C4.875 14.9212 4.73509 14.7812 4.5625 14.7812C4.38991 14.7812 4.25 14.9212 4.25 15.0938C4.25 15.2663 4.38991 15.4062 4.5625 15.4062Z" fill="#00A2E9"/>
</g>
<defs>
<clipPath id="clip0">
<rect width="16" height="16" fill="white"/>
</clipPath>
</defs>
</svg>
