<svg width="16" height="16" viewBox="0 0 16 16" fill="none" xmlns="http://www.w3.org/2000/svg">
<path d="M10.4062 9.3125C10.5788 9.3125 10.7188 9.17259 10.7188 9C10.7188 8.82741 10.5788 8.6875 10.4062 8.6875C10.2337 8.6875 10.0938 8.82741 10.0938 9C10.0938 9.17259 10.2337 9.3125 10.4062 9.3125Z" fill="#00A2E9"/>
<path d="M1.71875 9.09375C1.40922 9.09375 1.12188 8.964 0.909688 8.72841C0.850438 8.66256 0.766062 8.625 0.6775 8.625H0.3125C0.139938 8.625 0 8.76494 0 8.9375V11.75C0 11.9226 0.139938 12.0625 0.3125 12.0622H2.83666C2.58072 12.3698 2.4375 12.7569 2.4375 13.1562C2.4375 14.104 3.20853 14.875 4.15625 14.875C5.10397 14.875 5.875 14.104 5.875 13.1562C5.875 12.7569 5.73178 12.3694 5.47584 12.0622H10.5242C10.2682 12.3694 10.125 12.7569 10.125 13.1562C10.125 14.104 10.896 14.875 11.8438 14.875C12.7915 14.875 13.5625 14.104 13.5625 13.1562C13.5625 12.7569 13.4193 12.3698 13.1633 12.0625H15.6875C15.8601 12.0625 16 11.9226 16 11.75V8.9375C16 8.76494 15.8601 8.625 15.6875 8.625H15.3225C15.2339 8.625 15.1496 8.66256 15.0903 8.72841C14.8781 8.964 14.5908 9.09375 14.2812 9.09375C13.6782 9.09375 13.1875 8.60309 13.1875 8C13.1875 7.39691 13.6782 6.90625 14.2812 6.90625C14.5908 6.90625 14.8781 7.036 15.0903 7.27159C15.1496 7.33741 15.234 7.375 15.3225 7.375H15.6875C15.8601 7.375 16 7.23506 16 7.0625V4.25C16 4.07744 15.8601 3.9375 15.6875 3.9375H13.1633C13.4193 3.63025 13.5625 3.24306 13.5625 2.84375C13.5625 1.89603 12.7915 1.125 11.8438 1.125C10.896 1.125 10.125 1.89603 10.125 2.84375C10.125 3.24306 10.2682 3.63025 10.5242 3.9375C10.3818 3.9375 5.61822 3.9375 5.47581 3.9375C5.73175 3.63025 5.87497 3.24306 5.87497 2.84375C5.87497 1.89603 5.10394 1.125 4.15622 1.125C3.2085 1.125 2.4375 1.89603 2.4375 2.84375C2.4375 3.24306 2.58072 3.63025 2.83666 3.9375H0.3125C0.139938 3.9375 0 4.07744 0 4.25V7.0625C0 7.23506 0.139938 7.375 0.3125 7.375H0.6775C0.766062 7.375 0.850438 7.33744 0.909719 7.27159C1.12188 7.036 1.40922 6.90625 1.71875 6.90625C2.32184 6.90625 2.8125 7.39691 2.8125 8C2.8125 8.60309 2.32184 9.09375 1.71875 9.09375ZM1.71875 6.28125C1.31944 6.28125 0.93225 6.42447 0.625 6.68041V4.5625H3.21875C3.39131 4.5625 3.53125 4.42256 3.53125 4.25V3.885C3.53125 3.79644 3.49369 3.71206 3.42784 3.65278C3.19225 3.44062 3.0625 3.15328 3.0625 2.84375C3.0625 2.24066 3.55316 1.75 4.15625 1.75C4.75934 1.75 5.25 2.24066 5.25 2.84375C5.25 3.15328 5.12025 3.44062 4.88466 3.65281C4.81884 3.71206 4.78125 3.79647 4.78125 3.88503V4.25C4.78125 4.42256 4.92119 4.5625 5.09375 4.5625H7.6875V7.0625C7.6875 7.23506 7.82744 7.375 8 7.375H8.365C8.45356 7.375 8.53794 7.33744 8.59722 7.27159C8.80937 7.036 9.09672 6.90625 9.40625 6.90625C9.90259 6.90625 10.3375 7.24094 10.4639 7.72013C10.5079 7.88703 10.679 7.9865 10.8458 7.94256C11.0127 7.89856 11.1123 7.72759 11.0682 7.56069C10.8695 6.80737 10.1861 6.28125 9.40625 6.28125C9.00694 6.28125 8.61975 6.42447 8.3125 6.68041V4.5625H10.9062C11.0788 4.5625 11.2188 4.42256 11.2188 4.25V3.885C11.2188 3.79644 11.1812 3.71206 11.1153 3.65278C10.8798 3.44062 10.75 3.15328 10.75 2.84375C10.75 2.24066 11.2407 1.75 11.8438 1.75C12.4468 1.75 12.9375 2.24066 12.9375 2.84375C12.9375 3.15328 12.8077 3.44062 12.5722 3.65281C12.5063 3.71206 12.4688 3.79647 12.4688 3.88503V4.25C12.4688 4.42256 12.6087 4.5625 12.7812 4.5625H15.375V6.68041C15.0677 6.42447 14.6806 6.28125 14.2812 6.28125C13.3335 6.28125 12.5625 7.05228 12.5625 8C12.5625 8.94772 13.3335 9.71875 14.2812 9.71875C14.6806 9.71875 15.0677 9.57553 15.375 9.31959V11.4375H12.7812C12.6087 11.4375 12.4688 11.5774 12.4688 11.75V12.115C12.4688 12.2036 12.5063 12.2879 12.5722 12.3472C12.8077 12.5594 12.9375 12.8467 12.9375 13.1562C12.9375 13.7593 12.4468 14.25 11.8438 14.25C11.2407 14.25 10.75 13.7593 10.75 13.1562C10.75 12.8467 10.8798 12.5594 11.1153 12.3472C11.1812 12.2879 11.2188 12.2035 11.2188 12.115V11.75C11.2188 11.5774 11.0788 11.4375 10.9062 11.4375H8.3125V9.31997C8.50359 9.47978 8.72556 9.59603 8.96513 9.66056C9.13194 9.70541 9.30325 9.60669 9.34816 9.44006C9.39303 9.27344 9.29431 9.10194 9.12766 9.05703C8.92519 9.0025 8.74172 8.88884 8.59719 8.72831C8.53794 8.66253 8.45353 8.62494 8.36497 8.62494H8C7.82744 8.62494 7.6875 8.76487 7.6875 8.93744V11.4374H5.09375C4.92119 11.4374 4.78125 11.5774 4.78125 11.7499V12.1149C4.78125 12.2035 4.81881 12.2879 4.88466 12.3472C5.12025 12.5594 5.25 12.8467 5.25 13.1562C5.25 13.7593 4.75934 14.25 4.15625 14.25C3.55316 14.25 3.0625 13.7593 3.0625 13.1562C3.0625 12.8467 3.19225 12.5594 3.42784 12.3472C3.49366 12.2879 3.53125 12.2035 3.53125 12.115V11.75C3.53125 11.5774 3.39131 11.4375 3.21875 11.4375H0.625V9.31959C0.93225 9.57553 1.31944 9.71875 1.71875 9.71875C2.66647 9.71875 3.4375 8.94772 3.4375 8C3.4375 7.05228 2.66647 6.28125 1.71875 6.28125Z" fill="#00A2E9"/>
</svg>
