<svg width="16" height="16" viewBox="0 0 16 16" fill="none" xmlns="http://www.w3.org/2000/svg">
<g clip-path="url(#clip0)">
<path d="M14.9279 4.00345C13.8597 2.15329 12.135 0.829886 10.0715 0.276948C8.00796 -0.275991 5.85258 0.00779104 4.00243 1.07595C2.1523 2.14411 0.828863 3.86886 0.275957 5.93239C-0.276949 7.99592 0.00680053 10.1513 1.07496 12.0015C2.03311 13.6611 3.55599 14.9223 5.36305 15.5529C6.21964 15.8518 7.11386 16.0009 8.00671 16.0009C8.97749 16.0009 9.94652 15.8245 10.8625 15.4725C11.0236 15.4106 11.104 15.2298 11.042 15.0687C10.9801 14.9076 10.7993 14.8271 10.6382 14.8891C8.20011 15.8262 5.56068 15.4005 3.58871 13.9203L3.86868 12.4589L4.00358 12.4151C4.51336 12.2494 4.79336 11.6999 4.6278 11.1901L4.5288 10.8855C4.50589 10.815 4.50602 10.7404 4.52911 10.67C4.61596 10.4052 4.58493 10.1156 4.44396 9.87521C4.30299 9.63486 4.06533 9.46633 3.79186 9.41286L3.08655 9.27505L1.72568 8.24036C1.64414 8.17836 1.53743 8.16027 1.43999 8.19189L0.643238 8.4507C0.626332 8.16574 0.626082 7.88086 0.642144 7.59749C0.673582 7.62677 0.694051 7.64667 0.706644 7.65974C0.722238 7.6857 0.741551 7.70952 0.764176 7.73014C0.829238 7.78939 0.888176 7.81627 1.01193 7.81627C1.12564 7.81624 1.29399 7.79358 1.57196 7.75252C1.83558 7.71355 2.09783 7.66964 2.10043 7.6692C2.20552 7.65161 2.29436 7.58161 2.33618 7.48364C2.37799 7.38564 2.36696 7.27311 2.30693 7.18505L1.92377 6.62305L2.47258 6.23061C2.50914 6.20445 2.53964 6.17073 2.56199 6.13173L3.41271 4.64658L3.75561 4.27914C4.10602 3.90358 4.20602 3.35411 4.01033 2.87923C3.89489 2.59914 3.69327 2.36595 3.44108 2.20879C3.71421 1.99407 4.00543 1.79582 4.31493 1.61717C5.45049 0.961542 6.68974 0.643823 7.91596 0.631667L7.35796 1.33164L5.28874 2.05704C5.20471 2.08648 5.13721 2.15042 5.10327 2.23273L4.52539 3.63361C4.48436 3.73314 4.49739 3.8467 4.55993 3.93433L5.40393 5.11658C5.28305 5.22686 5.16539 5.38748 5.02486 5.58692C4.96324 5.67439 4.90505 5.75698 4.86483 5.8033C4.82986 5.84361 4.79486 5.88298 4.76018 5.92198C4.57864 6.1262 4.39096 6.33742 4.25761 6.61955C3.96443 7.24014 4.02364 7.96145 4.41214 8.50202C4.7878 9.02467 5.40711 9.29036 6.06811 9.21261C6.1758 9.19999 6.27621 9.17514 6.37336 9.15108C6.64127 9.0848 6.72614 9.07817 6.81208 9.15861C6.85389 9.19777 6.85774 9.20517 6.85689 9.33796C6.8563 9.42246 6.85564 9.52758 6.88477 9.64761C6.93143 9.83964 7.05202 9.97236 7.14889 10.079C7.19705 10.132 7.24686 10.1868 7.26221 10.2235C7.35968 10.4571 7.31724 10.5865 7.22424 10.8699C7.21627 10.8941 7.20814 10.9189 7.19999 10.9443C7.05871 11.3816 7.25564 11.8154 7.42939 12.1981C7.48583 12.3224 7.53911 12.4397 7.57402 12.5434C7.85499 13.3771 8.06561 13.5681 8.23464 13.6449C8.32318 13.6852 8.4148 13.7028 8.50736 13.7028C8.95783 13.7028 9.42789 13.2845 9.64383 13.0194C9.77946 12.8529 9.81286 12.6861 9.83724 12.5644C9.84939 12.5038 9.85896 12.456 9.87721 12.4247C9.90515 12.3769 9.93805 12.3399 9.97971 12.2929C10.0635 12.1986 10.1678 12.0812 10.2353 11.8684C10.2866 11.7068 10.3239 11.6672 10.4474 11.5357C10.4689 11.5128 10.4918 11.4884 10.5164 11.4616C10.9326 11.0087 10.8254 10.6628 10.7119 10.2965C10.6163 9.98824 10.7834 9.79111 11.1874 9.41489C11.3626 9.2518 11.5436 9.08317 11.6836 8.88055C11.7448 8.79186 11.9312 8.52208 11.8159 8.25467C11.7028 7.99249 11.4156 7.94842 11.1847 7.91305C11.0936 7.89905 10.9558 7.87792 10.912 7.84927C10.7186 7.72286 10.6004 7.45905 10.486 7.20389C10.4632 7.15311 10.4407 7.10299 10.4179 7.05433C10.3773 6.96752 10.3367 6.86249 10.2937 6.7513C10.1801 6.45705 10.0512 6.12352 9.83186 5.89102C9.63471 5.68211 9.26305 5.58148 8.93514 5.49267C8.82486 5.46283 8.72077 5.43464 8.65211 5.4093C8.59458 5.38805 8.53214 5.3842 8.47258 5.3982C8.31299 5.43561 8.21343 5.47683 8.13949 5.53608C8.11996 5.55173 8.06211 5.60314 8.02824 5.68577C7.91383 5.63086 7.75652 5.52602 7.65971 5.46148C7.65771 5.46014 7.65568 5.4588 7.65368 5.45745C7.6863 5.32689 7.65677 5.22211 7.62583 5.15667C7.45127 4.78742 6.8718 4.81633 6.75749 4.82605C6.69255 4.83148 6.61039 4.83439 6.52349 4.83745C6.38699 4.8423 6.23611 4.84773 6.08683 4.86448L6.09452 4.84305C6.20783 4.52733 6.50933 4.3152 6.84477 4.3152H7.02243C7.19496 4.3152 7.33489 4.17526 7.33489 4.00273C7.33489 3.8302 7.19496 3.69026 7.02243 3.69026H6.84477C6.34677 3.69026 5.89074 3.95236 5.63514 4.36489L5.16905 3.71198L5.62761 2.60045L7.64958 1.89157C7.70502 1.87214 7.75389 1.83745 7.79055 1.79148L8.68939 0.66401C10.9861 0.882479 13.148 2.17017 14.3868 4.31586C14.7167 4.88739 14.9608 5.48908 15.1231 6.10448L14.9906 6.22261C14.8177 6.37689 14.7164 6.59817 14.7126 6.82977C14.7125 6.8323 14.7125 6.8348 14.7124 6.8373L14.4966 6.2438C14.4644 6.15523 14.417 6.07402 14.3558 6.00242L13.9709 5.5517C13.8216 5.37698 13.6043 5.27683 13.3746 5.27683H12.9034C12.7361 5.27683 12.5832 5.36845 12.5043 5.51586C12.4254 5.6633 12.434 5.84136 12.5268 5.98048L12.5745 6.05208C12.27 6.31392 11.9178 6.52345 11.5428 6.66477L10.8969 5.42748V5.15145C10.8969 5.06608 10.8619 4.98436 10.8001 4.92545L10.2185 4.37017C10.1864 4.33955 10.1481 4.31611 10.1063 4.30139L9.58271 4.11739C9.4198 4.06008 9.24149 4.1458 9.1843 4.30858C9.12708 4.47142 9.21268 4.64976 9.37549 4.70698L9.83561 4.8687L10.2719 5.28517V5.50417C10.2719 5.55452 10.2841 5.60414 10.3074 5.6488L11.1161 7.19777C11.1888 7.33714 11.3539 7.40083 11.5012 7.34633L11.7366 7.25952C12.2837 7.05777 12.7907 6.73324 13.203 6.32105C13.3083 6.2157 13.3246 6.05073 13.242 5.92677L13.2254 5.9018H13.3746C13.4212 5.9018 13.4654 5.92214 13.4957 5.95764L13.8807 6.40836C13.8931 6.42289 13.9027 6.43933 13.9092 6.45736L14.3341 7.62558C14.3706 7.72596 14.4558 7.8007 14.56 7.82383C14.5825 7.8288 14.6052 7.83124 14.6277 7.83124C14.7097 7.83124 14.7895 7.79895 14.8486 7.73971L15.0509 7.53749C15.1789 7.40939 15.2671 7.24733 15.3092 7.06767C15.622 9.57408 14.6392 12.1668 12.5619 13.7973C12.4261 13.9038 12.4024 14.1002 12.509 14.236C12.6155 14.3718 12.8119 14.3955 12.9477 14.2889C14.4475 13.1118 15.4778 11.4282 15.8489 9.54821C16.2234 7.65011 15.8964 5.68089 14.9279 4.00345ZM1.47755 8.8368L2.76608 9.81652C2.80418 9.84549 2.84836 9.8653 2.8953 9.87446L3.67193 10.0262C3.77105 10.0456 3.85374 10.1042 3.90483 10.1913C3.95593 10.2784 3.96668 10.3792 3.93524 10.4752C3.87055 10.6725 3.87024 10.8811 3.93439 11.0785L4.03339 11.3831C4.09255 11.5652 3.99249 11.7615 3.81046 11.8206L3.49993 11.9216C3.39158 11.9567 3.31102 12.0481 3.28961 12.1599L3.03968 13.4646C2.49021 12.9617 2.00777 12.3673 1.61618 11.689C1.13843 10.8616 0.839926 9.97908 0.708363 9.08671L1.47755 8.8368ZM3.29871 3.85276L2.93111 4.24661C2.91471 4.2642 2.90036 4.28364 2.88839 4.30451L2.05364 5.76189L1.31174 6.29239C1.17355 6.3912 1.13961 6.58223 1.2353 6.72261L1.51277 7.12961C1.35283 7.15342 1.2093 7.17305 1.11386 7.18345C1.09552 7.16586 1.07633 7.14802 1.05649 7.12958C0.982207 7.06058 0.878988 6.96842 0.725113 6.83377C0.978894 5.26305 1.73577 3.78329 2.92614 2.65376C3.15408 2.72554 3.34114 2.89558 3.43252 3.11736C3.53533 3.36679 3.48277 3.65548 3.29871 3.85276ZM5.84652 5.56036C5.98589 5.48192 6.30939 5.47045 6.54558 5.46208C6.64024 5.45873 6.72968 5.45555 6.80955 5.44886C6.85171 5.44533 6.89852 5.44598 6.94268 5.44942C6.92296 5.50005 6.91655 5.55561 6.92511 5.61073C6.94014 5.7077 6.99993 5.79192 7.08643 5.8382C7.14505 5.86958 7.22664 5.92398 7.31302 5.98158C7.55724 6.14439 7.83408 6.32892 8.09414 6.34548C8.33064 6.36083 8.46224 6.22605 8.51861 6.16864C8.52311 6.16408 8.52736 6.15952 8.53186 6.15536C8.56361 6.12948 8.59336 6.0948 8.61549 6.05295C8.66546 6.06723 8.71796 6.08145 8.77177 6.09605C8.9568 6.14614 9.30121 6.23939 9.3773 6.32002C9.51246 6.4633 9.6178 6.73602 9.71077 6.97661C9.75774 7.0982 9.80211 7.21295 9.85189 7.31936C9.87327 7.36502 9.8943 7.41205 9.91568 7.45967C10.0599 7.7813 10.2233 8.14586 10.57 8.37249C10.7272 8.47527 10.92 8.5048 11.09 8.53089C11.1106 8.53405 11.1341 8.53767 11.1581 8.54161C11.0571 8.68242 10.9134 8.81624 10.7616 8.95764C10.3747 9.31789 9.8933 9.76627 10.115 10.4816C10.2197 10.8193 10.2246 10.8558 10.0563 11.0389C10.0333 11.0638 10.012 11.0866 9.99193 11.1079C9.8478 11.2613 9.73396 11.3825 9.63971 11.6794C9.61233 11.7656 9.57686 11.8056 9.51246 11.8781C9.46096 11.9361 9.3968 12.0083 9.33764 12.1096C9.26677 12.2309 9.24333 12.3477 9.22455 12.4415C9.20602 12.5339 9.19552 12.5802 9.15927 12.6247C9.07674 12.726 8.9228 12.8731 8.76477 12.9736C8.61789 13.0668 8.53214 13.0796 8.50293 13.0778C8.46958 13.0421 8.3488 12.8855 8.1663 12.3439C8.1213 12.2102 8.05886 12.0727 7.99849 11.9398C7.86539 11.6466 7.7278 11.3435 7.79474 11.1364C7.80264 11.1119 7.81046 11.0881 7.81814 11.0647C7.92508 10.7388 8.02602 10.431 7.83902 9.98286C7.78208 9.84639 7.69143 9.74668 7.61152 9.65868C7.5598 9.60177 7.50121 9.53727 7.49218 9.50014C7.48118 9.45486 7.48152 9.40258 7.48193 9.34205C7.48299 9.17877 7.48461 8.93205 7.23933 8.70236C6.89352 8.37867 6.49027 8.47839 6.22339 8.54439C6.14143 8.56464 6.06399 8.58383 5.99536 8.59189C5.55636 8.64333 5.16443 8.4777 4.91974 8.1372C4.66377 7.78105 4.62661 7.30177 4.8228 6.88645C4.91777 6.68549 5.06124 6.52402 5.22736 6.33714C5.26364 6.2963 5.30027 6.25511 5.33689 6.21292C5.39783 6.14267 5.46489 6.04755 5.5358 5.94683C5.62046 5.82667 5.77808 5.60292 5.84652 5.56036Z" fill="#00A2E9"/>
</g>
<defs>
<clipPath id="clip0">
<rect width="16" height="16" fill="white"/>
</clipPath>
</defs>
</svg>
